<svg width="13" height="10" viewBox="0 0 13 10" fill="none" xmlns="http://www.w3.org/2000/svg">
<path d="M12.4913 5.52187L11.8744 1.81813C11.8438 0.810625 11.015 0 10 0C9.65438 0 9.375 0.28 9.375 0.625C9.375 0.97 9.65438 1.25 10 1.25C10.345 1.25 10.625 1.53062 10.625 1.875C10.625 1.90937 10.6281 1.94375 10.6337 1.97812L11.1375 5H7.5C7.15438 5 6.875 5.28 6.875 5.625V5.74375C6.68 5.6725 6.46875 5.625 6.25 5.625C6.03125 5.625 5.82 5.6725 5.625 5.74375V5.625C5.625 5.28 5.345 5 5 5H1.3625L1.86625 1.97812C1.8725 1.94375 1.875 1.90937 1.875 1.875C1.875 1.53062 2.15563 1.25 2.5 1.25C2.845 1.25 3.125 0.97 3.125 0.625C3.125 0.28 2.845 0 2.5 0C1.485 0 0.655625 0.810625 0.625625 1.81813L0.008125 5.52187C0.005625 5.54 0 5.60687 0 5.625V7.1875C0 8.73812 1.26188 10 2.8125 10C4.36312 10 5.625 8.73812 5.625 7.1875V7.16313C5.81938 7.01688 6.07125 6.875 6.25 6.875C6.42875 6.875 6.68062 7.01688 6.875 7.16313V7.1875C6.875 8.73812 8.13688 10 9.6875 10C11.2381 10 12.5 8.73812 12.5 7.1875V5.625C12.5 5.60687 12.4944 5.54 12.4913 5.52187ZM4.375 7.1875C4.375 8.04937 3.67375 8.75 2.8125 8.75C1.95125 8.75 1.25 8.04937 1.25 7.1875V6.25H4.375V7.1875ZM11.25 7.1875C11.25 8.04937 10.5494 8.75 9.6875 8.75C8.82563 8.75 8.125 8.04937 8.125 7.1875V6.25H11.25V7.1875Z" fill="#212B36"/>
</svg>
