<svg width="12" height="12" viewBox="0 0 12 12" fill="none" xmlns="http://www.w3.org/2000/svg">
<path d="M0.1 1.33728C0.1 0.98372 0.233447 0.676167 0.466267 0.45659C0.69928 0.236832 1.03753 0.1 1.45527 0.1C1.8728 0.1 2.20218 0.236619 2.4287 0.455719C2.65519 0.67478 2.78558 0.982751 2.79369 1.33838C2.79342 1.68354 2.66392 1.99081 2.43317 2.2121C2.20224 2.43356 1.86417 2.57426 1.4382 2.57426H1.42151C0.611067 2.57426 0.1 2.02241 0.1 1.33728Z" fill="#212B36" stroke="#F4F5F7" stroke-width="0.2"/>
<path d="M0.251855 3.82656H2.62431V11.3659H0.251855V3.82656Z" fill="#212B36" stroke="#F4F5F7" stroke-width="0.2"/>
<path d="M6.61998 4.8509V5.16319L6.80135 4.90904L6.80135 4.90903L6.80138 4.90899L6.80139 4.90897L6.80174 4.90849L6.80343 4.90616L6.81081 4.89621C6.81748 4.8873 6.82764 4.87397 6.84116 4.85684C6.86822 4.82257 6.90872 4.77316 6.96173 4.71367C7.06785 4.59456 7.22355 4.43564 7.42133 4.27687C7.81821 3.95827 8.37612 3.64688 9.03828 3.64688C9.86217 3.64688 10.5738 3.91555 11.0801 4.4649C11.5873 5.01504 11.8998 5.85887 11.8998 7.03025V11.3678H9.52757V7.32755C9.52757 6.79824 9.43336 6.33731 9.20771 6.00602C8.97773 5.66835 8.61934 5.4774 8.12442 5.4774C7.3597 5.4774 6.9075 5.99481 6.71194 6.48041C6.63593 6.66568 6.61984 6.91418 6.61984 7.1459V11.3678H4.24746V3.82852H6.61998V4.8509Z" fill="#212B36" stroke="#F4F5F7" stroke-width="0.2"/>
</svg>
