<svg width="12" height="12" viewBox="0 0 12 12" fill="none" xmlns="http://www.w3.org/2000/svg">
<path d="M8.25 0H3.75C1.67925 0 0 1.67925 0 3.75V8.25C0 10.3207 1.67925 12 3.75 12H8.25C10.3207 12 12 10.3207 12 8.25V3.75C12 1.67925 10.3207 0 8.25 0ZM10.875 8.25C10.875 9.6975 9.6975 10.875 8.25 10.875H3.75C2.3025 10.875 1.125 9.6975 1.125 8.25V3.75C1.125 2.3025 2.3025 1.125 3.75 1.125H8.25C9.6975 1.125 10.875 2.3025 10.875 3.75V8.25Z" fill="#212B36"/>
<path d="M6 3C4.34325 3 3 4.34325 3 6C3 7.65675 4.34325 9 6 9C7.65675 9 9 7.65675 9 6C9 4.34325 7.65675 3 6 3ZM6 7.875C4.9665 7.875 4.125 7.0335 4.125 6C4.125 4.96575 4.9665 4.125 6 4.125C7.0335 4.125 7.875 4.96575 7.875 6C7.875 7.0335 7.0335 7.875 6 7.875Z" fill="#212B36"/>
<path d="M9.22507 3.17486C9.44584 3.17486 9.62482 2.99589 9.62482 2.77512C9.62482 2.55434 9.44584 2.37537 9.22507 2.37537C9.00429 2.37537 8.82532 2.55434 8.82532 2.77512C8.82532 2.99589 9.00429 3.17486 9.22507 3.17486Z" fill="#212B36"/>
</svg>
