<svg width="16" height="16" viewBox="0 0 16 16" fill="none" xmlns="http://www.w3.org/2000/svg">
<path fill-rule="evenodd" clip-rule="evenodd" d="M8 0C3.5888 0 0 3.5888 0 8C0 12.4112 3.5888 16 8 16C12.4112 16 16 12.4112 16 8C16 3.5888 12.4112 0 8 0ZM8 14.4C4.4712 14.4 1.6 11.5288 1.6 8C1.6 4.4712 4.4712 1.6 8 1.6C11.5288 1.6 14.4 4.4712 14.4 8C14.4 11.5288 11.5288 14.4 8 14.4ZM10.812 7.31392L6.812 4.91392C6.5648 4.76592 6.2568 4.76112 6.0056 4.90352C5.7552 5.04592 5.6 5.31152 5.6 5.60032V10.4003C5.6 10.6883 5.7552 10.9539 6.0056 11.0963C6.128 11.1659 6.264 11.2003 6.4 11.2003C6.5424 11.2003 6.6848 11.1619 6.812 11.0859L10.812 8.68592C11.052 8.54112 11.2 8.28112 11.2 8.00032C11.2 7.71952 11.052 7.45872 10.812 7.31392ZM7.2 8.98672V7.01312L8.8456 8.00032L7.2 8.98672Z" fill="#212B36"/>
</svg>
