<svg width="112" height="17" viewBox="0 0 112 17" fill="none" xmlns="http://www.w3.org/2000/svg">
<path d="M74.6289 13H76.3105V11.4473H77.4238V10.0352H76.3105V4.54492H73.8145L70.4219 9.9707V11.4473H74.6289V13ZM71.9629 10.082V10.0352L74.623 5.82227H74.6641V10.082H71.9629ZM79.2168 13.0996C79.7441 13.0996 80.166 12.6777 80.166 12.1504C80.166 11.6172 79.7441 11.2012 79.2168 11.2012C78.6836 11.2012 78.2676 11.6172 78.2676 12.1504C78.2676 12.6777 78.6836 13.0996 79.2168 13.0996ZM84.4961 13.1465C86.377 13.1465 87.7539 11.916 87.7539 10.1875V10.1758C87.7539 8.59375 86.6348 7.43359 85 7.43359C83.8574 7.43359 83.0254 8.00781 82.6914 8.79297H82.6562C82.6562 8.70508 82.6621 8.58789 82.668 8.4707C82.7324 6.97656 83.2715 5.79883 84.5078 5.79883C85.1992 5.79883 85.668 6.14453 85.8789 6.6543L85.8965 6.70703H87.6426L87.6309 6.64844C87.3789 5.3418 86.1484 4.39844 84.5137 4.39844C82.3105 4.39844 80.9688 6.0625 80.9688 8.83398V8.8457C80.9688 11.7109 82.457 13.1465 84.4961 13.1465ZM82.9258 10.2285V10.2168C82.9258 9.35547 83.6055 8.74023 84.4902 8.74023C85.3691 8.74023 86.0312 9.36133 86.0312 10.2402V10.252C86.0312 11.084 85.334 11.7402 84.4727 11.7402C83.6055 11.7402 82.9258 11.0781 82.9258 10.2285Z" fill="#212B36"/>
<path d="M93.4727 15.0508H94.3281C93.4844 14.0723 92.8457 11.752 92.8457 9.79492C92.8457 7.83789 93.4844 5.52344 94.3281 4.54492H93.4727C92.3301 5.99805 91.8086 7.70898 91.8086 9.79492C91.8086 11.8809 92.3301 13.6035 93.4727 15.0508ZM97.4043 13H98.4238V4.54492H97.3926L95.1426 6.16211V7.22266L97.3809 5.66406H97.4043V13ZM103.627 13.1406C105.355 13.1406 106.621 11.9336 106.621 10.2695V10.2578C106.621 8.65234 105.426 7.46289 103.814 7.46289C102.666 7.46289 101.799 8.07227 101.459 8.82227H101.436C101.436 8.75781 101.436 8.69922 101.441 8.64062C101.488 6.86523 102.109 5.33594 103.686 5.33594C104.553 5.33594 105.156 5.76953 105.408 6.4668L105.432 6.53125H106.504L106.486 6.45508C106.205 5.22461 105.133 4.4043 103.697 4.4043C101.629 4.4043 100.416 6.06836 100.416 8.91602V8.92773C100.416 12.0625 102.068 13.1406 103.627 13.1406ZM101.688 10.2578V10.252C101.688 9.17383 102.525 8.38867 103.633 8.38867C104.746 8.38867 105.549 9.17969 105.549 10.2812V10.293C105.549 11.3594 104.693 12.2031 103.615 12.2031C102.531 12.2031 101.688 11.3418 101.688 10.2578ZM108.379 15.0508C109.521 13.6035 110.043 11.8809 110.043 9.79492C110.043 7.70898 109.521 5.99805 108.379 4.54492H107.523C108.367 5.52344 109.006 7.83789 109.006 9.79492C109.006 11.752 108.367 14.0723 107.523 15.0508H108.379Z" fill="#637381"/>
<path fill-rule="evenodd" clip-rule="evenodd" d="M4.99996 11.5737L2.55764 12.9135C2.26532 13.0739 1.90378 12.9566 1.7501 12.6516C1.6889 12.5301 1.66779 12.391 1.69002 12.2558L2.15646 9.41795L0.180579 7.40821C-0.0559068 7.16767 -0.0607457 6.77263 0.169771 6.52586C0.261564 6.42759 0.381841 6.36365 0.51198 6.34391L3.24258 5.92988L4.46374 3.34796C4.6099 3.03894 4.96846 2.91206 5.2646 3.06457C5.38253 3.1253 5.47798 3.2249 5.53618 3.34796L6.75734 5.92988L9.48794 6.34391C9.81476 6.39347 10.0412 6.71009 9.99371 7.05112C9.9748 7.18692 9.91351 7.31242 9.81934 7.40821L7.84346 9.41795L8.3099 12.2558C8.36573 12.5954 8.14712 12.918 7.82163 12.9762C7.69201 12.9994 7.55868 12.9774 7.44228 12.9135L4.99996 11.5737Z" fill="#FFB800"/>
<path fill-rule="evenodd" clip-rule="evenodd" d="M18 11.5737L15.5576 12.9135C15.2653 13.0739 14.9038 12.9566 14.7501 12.6516C14.6889 12.5301 14.6678 12.391 14.69 12.2558L15.1565 9.41795L13.1806 7.40821C12.9441 7.16767 12.9393 6.77263 13.1698 6.52586C13.2616 6.42759 13.3818 6.36365 13.512 6.34391L16.2426 5.92988L17.4637 3.34796C17.6099 3.03894 17.9685 2.91206 18.2646 3.06457C18.3825 3.1253 18.478 3.2249 18.5362 3.34796L19.7573 5.92988L22.4879 6.34391C22.8148 6.39347 23.0412 6.71009 22.9937 7.05112C22.9748 7.18692 22.9135 7.31242 22.8193 7.40821L20.8435 9.41795L21.3099 12.2558C21.3657 12.5954 21.1471 12.918 20.8216 12.9762C20.692 12.9994 20.5587 12.9774 20.4423 12.9135L18 11.5737Z" fill="#FFB800"/>
<path fill-rule="evenodd" clip-rule="evenodd" d="M31 11.5737L28.5576 12.9135C28.2653 13.0739 27.9038 12.9566 27.7501 12.6516C27.6889 12.5301 27.6678 12.391 27.69 12.2558L28.1565 9.41795L26.1806 7.40821C25.9441 7.16767 25.9393 6.77263 26.1698 6.52586C26.2616 6.42759 26.3818 6.36365 26.512 6.34391L29.2426 5.92988L30.4637 3.34796C30.6099 3.03894 30.9685 2.91206 31.2646 3.06457C31.3825 3.1253 31.478 3.2249 31.5362 3.34796L32.7573 5.92988L35.4879 6.34391C35.8148 6.39347 36.0412 6.71009 35.9937 7.05112C35.9748 7.18692 35.9135 7.31242 35.8193 7.40821L33.8435 9.41795L34.3099 12.2558C34.3657 12.5954 34.1471 12.918 33.8216 12.9762C33.692 12.9994 33.5587 12.9774 33.4423 12.9135L31 11.5737Z" fill="#FFB800"/>
<path fill-rule="evenodd" clip-rule="evenodd" d="M44 11.5737L41.5576 12.9135C41.2653 13.0739 40.9038 12.9566 40.7501 12.6516C40.6889 12.5301 40.6678 12.391 40.69 12.2558L41.1565 9.41795L39.1806 7.40821C38.9441 7.16767 38.9393 6.77263 39.1698 6.52586C39.2616 6.42759 39.3818 6.36365 39.512 6.34391L42.2426 5.92988L43.4637 3.34796C43.6099 3.03894 43.9685 2.91206 44.2646 3.06457C44.3825 3.1253 44.478 3.2249 44.5362 3.34796L45.7573 5.92988L48.4879 6.34391C48.8148 6.39347 49.0412 6.71009 48.9937 7.05112C48.9748 7.18692 48.9135 7.31242 48.8193 7.40821L46.8435 9.41795L47.3099 12.2558C47.3657 12.5954 47.1471 12.918 46.8216 12.9762C46.692 12.9994 46.5587 12.9774 46.4423 12.9135L44 11.5737Z" fill="#FFB800"/>
<mask id="mask0_1_357" style="mask-type:alpha" maskUnits="userSpaceOnUse" x="52" y="3" width="10" height="10">
<path fill-rule="evenodd" clip-rule="evenodd" d="M57 11.5737L54.5576 12.9135C54.2653 13.0739 53.9038 12.9566 53.7501 12.6516C53.6889 12.5301 53.6678 12.391 53.69 12.2558L54.1565 9.41795L52.1806 7.40821C51.9441 7.16767 51.9393 6.77263 52.1698 6.52586C52.2616 6.42759 52.3818 6.36365 52.512 6.34391L55.2426 5.92988L56.4637 3.34796C56.6099 3.03894 56.9685 2.91206 57.2646 3.06457C57.3825 3.1253 57.478 3.2249 57.5362 3.34796L58.7573 5.92988L61.4879 6.34391C61.8148 6.39347 62.0412 6.71009 61.9937 7.05112C61.9748 7.18692 61.9135 7.31242 61.8193 7.40821L59.8435 9.41795L60.3099 12.2558C60.3657 12.5954 60.1471 12.918 59.8216 12.9762C59.692 12.9994 59.5587 12.9774 59.4423 12.9135L57 11.5737Z" fill="#D0D5D9"/>
</mask>
<g mask="url(#mask0_1_357)">
<path fill-rule="evenodd" clip-rule="evenodd" d="M57 11.5737L54.5576 12.9135C54.2653 13.0739 53.9038 12.9566 53.7501 12.6516C53.6889 12.5301 53.6678 12.391 53.69 12.2558L54.1565 9.41795L52.1806 7.40821C51.9441 7.16767 51.9393 6.77263 52.1698 6.52586C52.2616 6.42759 52.3818 6.36365 52.512 6.34391L55.2426 5.92988L56.4637 3.34796C56.6099 3.03894 56.9685 2.91206 57.2646 3.06457C57.3825 3.1253 57.478 3.2249 57.5362 3.34796L58.7573 5.92988L61.4879 6.34391C61.8148 6.39347 62.0412 6.71009 61.9937 7.05112C61.9748 7.18692 61.9135 7.31242 61.8193 7.40821L59.8435 9.41795L60.3099 12.2558C60.3657 12.5954 60.1471 12.918 59.8216 12.9762C59.692 12.9994 59.5587 12.9774 59.4423 12.9135L57 11.5737Z" fill="#D0D5D9"/>
<rect x="48" y="-8" width="10" height="27" fill="#FFB800"/>
</g>
</svg>
