<svg width="28" height="28" viewBox="0 0 28 28" fill="none" xmlns="http://www.w3.org/2000/svg">
<path d="M26.0001 5.99996H20.6667V4.66663C20.6667 3.60576 20.2453 2.58834 19.4952 1.8382C18.745 1.08805 17.7276 0.666626 16.6667 0.666626H11.3334C10.2725 0.666626 9.25513 1.08805 8.50499 1.8382C7.75484 2.58834 7.33341 3.60576 7.33341 4.66663V5.99996H2.00008C1.64646 5.99996 1.30732 6.14044 1.05727 6.39048C0.807224 6.64053 0.666748 6.97967 0.666748 7.33329V12.6666C0.66975 13.2258 0.78996 13.7781 1.01962 14.288C1.24928 14.7978 1.58328 15.2538 2.00008 15.6266V23.3333C2.00008 24.3942 2.42151 25.4116 3.17165 26.1617C3.9218 26.9119 4.93922 27.3333 6.00008 27.3333H22.0001C23.0609 27.3333 24.0784 26.9119 24.8285 26.1617C25.5787 25.4116 26.0001 24.3942 26.0001 23.3333V15.6266C26.4169 15.2538 26.7509 14.7978 26.9805 14.288C27.2102 13.7781 27.3304 13.2258 27.3334 12.6666V7.33329C27.3334 6.97967 27.1929 6.64053 26.9429 6.39048C26.6928 6.14044 26.3537 5.99996 26.0001 5.99996ZM10.0001 4.66663C10.0001 4.313 10.1406 3.97387 10.3906 3.72382C10.6407 3.47377 10.9798 3.33329 11.3334 3.33329H16.6667C17.0204 3.33329 17.3595 3.47377 17.6096 3.72382C17.8596 3.97387 18.0001 4.313 18.0001 4.66663V5.99996H10.0001V4.66663ZM23.3334 23.3333C23.3334 23.6869 23.1929 24.0261 22.9429 24.2761C22.6928 24.5262 22.3537 24.6666 22.0001 24.6666H6.00008C5.64646 24.6666 5.30732 24.5262 5.05727 24.2761C4.80722 24.0261 4.66675 23.6869 4.66675 23.3333V16.6666H7.33341V18C7.33341 18.3536 7.47389 18.6927 7.72394 18.9428C7.97399 19.1928 8.31313 19.3333 8.66675 19.3333C9.02037 19.3333 9.35951 19.1928 9.60956 18.9428C9.85961 18.6927 10.0001 18.3536 10.0001 18V16.6666H18.0001V18C18.0001 18.3536 18.1406 18.6927 18.3906 18.9428C18.6407 19.1928 18.9798 19.3333 19.3334 19.3333C19.687 19.3333 20.0262 19.1928 20.2762 18.9428C20.5263 18.6927 20.6667 18.3536 20.6667 18V16.6666H23.3334V23.3333ZM24.6667 12.6666C24.6667 13.0202 24.5263 13.3594 24.2762 13.6094C24.0262 13.8595 23.687 14 23.3334 14H20.6667V12.6666C20.6667 12.313 20.5263 11.9739 20.2762 11.7238C20.0262 11.4738 19.687 11.3333 19.3334 11.3333C18.9798 11.3333 18.6407 11.4738 18.3906 11.7238C18.1406 11.9739 18.0001 12.313 18.0001 12.6666V14H10.0001V12.6666C10.0001 12.313 9.85961 11.9739 9.60956 11.7238C9.35951 11.4738 9.02037 11.3333 8.66675 11.3333C8.31313 11.3333 7.97399 11.4738 7.72394 11.7238C7.47389 11.9739 7.33341 12.313 7.33341 12.6666V14H4.66675C4.31313 14 3.97399 13.8595 3.72394 13.6094C3.47389 13.3594 3.33341 13.0202 3.33341 12.6666V8.66663H24.6667V12.6666Z" fill="white"/>
</svg>
