<svg width="28" height="28" viewBox="0 0 28 28" fill="none" xmlns="http://www.w3.org/2000/svg">
<path d="M26.2264 0.746625C25.2706 0.582003 24.3028 0.497266 23.333 0.493292C20.0242 0.490579 16.7844 1.43939 13.9997 3.22663C11.2079 1.46286 7.96857 0.537333 4.66637 0.559959C3.69657 0.563932 2.72878 0.64867 1.77304 0.813292C1.45998 0.867263 1.17648 1.03124 0.97359 1.27568C0.7707 1.52013 0.661754 1.82898 0.666373 2.14662V18.1466C0.663517 18.3425 0.703874 18.5367 0.784573 18.7152C0.865271 18.8938 0.984327 19.0523 1.13327 19.1796C1.28221 19.3069 1.45738 19.3998 1.64631 19.4517C1.83525 19.5037 2.0333 19.5133 2.22637 19.48C4.13707 19.1491 6.09464 19.204 7.98379 19.6414C9.87295 20.0788 11.6555 20.8898 13.2264 22.0266L13.3864 22.12H13.533C13.6809 22.1816 13.8395 22.2133 13.9997 22.2133C14.1599 22.2133 14.3185 22.1816 14.4664 22.12H14.613L14.773 22.0266C16.333 20.8643 18.1104 20.0271 19.9999 19.5644C21.8894 19.1018 23.8526 19.0232 25.773 19.3333C25.9661 19.3666 26.1642 19.357 26.3531 19.3051C26.542 19.2532 26.7172 19.1603 26.8661 19.033C27.0151 18.9057 27.1341 18.7471 27.2148 18.5685C27.2955 18.39 27.3359 18.1959 27.333 18V1.99996C27.3192 1.69616 27.2019 1.40624 27.0006 1.17828C26.7993 0.950312 26.5261 0.798008 26.2264 0.746625ZM12.6664 18.4666C10.1996 17.1689 7.45373 16.4916 4.66637 16.4933C4.22637 16.4933 3.78637 16.4933 3.33304 16.4933V3.15996C3.77712 3.13436 4.2223 3.13436 4.66637 3.15996C7.51089 3.15681 10.2933 3.99155 12.6664 5.55996V18.4666ZM24.6664 16.5466C24.213 16.5466 23.773 16.5466 23.333 16.5466C20.5457 16.5449 17.7999 17.2222 15.333 18.52V5.55996C17.7061 3.99155 20.4885 3.15681 23.333 3.15996C23.7771 3.13436 24.2223 3.13436 24.6664 3.15996V16.5466ZM26.2264 22.08C25.2706 21.9153 24.3028 21.8306 23.333 21.8266C20.0242 21.8239 16.7844 22.7727 13.9997 24.56C11.2151 22.7727 7.97522 21.8239 4.66637 21.8266C3.69657 21.8306 2.72878 21.9153 1.77304 22.08C1.59948 22.1075 1.43307 22.1691 1.28339 22.2612C1.13371 22.3532 1.00371 22.474 0.900861 22.6165C0.798015 22.759 0.724353 22.9204 0.684111 23.0915C0.643869 23.2626 0.63784 23.4399 0.666373 23.6133C0.734131 23.9595 0.93636 24.2648 1.22876 24.4622C1.52116 24.6597 1.87989 24.7332 2.22637 24.6666C4.13707 24.3358 6.09464 24.3907 7.98379 24.8281C9.87295 25.2654 11.6555 26.0764 13.2264 27.2133C13.4522 27.3741 13.7225 27.4605 13.9997 27.4605C14.2769 27.4605 14.5472 27.3741 14.773 27.2133C16.3439 26.0764 18.1265 25.2654 20.0156 24.8281C21.9048 24.3907 23.8623 24.3358 25.773 24.6666C26.1195 24.7332 26.4783 24.6597 26.7707 24.4622C27.0631 24.2648 27.2653 23.9595 27.333 23.6133C27.3616 23.4399 27.3555 23.2626 27.3153 23.0915C27.2751 22.9204 27.2014 22.759 27.0985 22.6165C26.9957 22.474 26.8657 22.3532 26.716 22.2612C26.5663 22.1691 26.3999 22.1075 26.2264 22.08V22.08Z" fill="white"/>
</svg>
