<svg width="32" height="32" viewBox="0 0 32 32" fill="none" xmlns="http://www.w3.org/2000/svg">
<path fill-rule="evenodd" clip-rule="evenodd" d="M16 0C7.1776 0 0 7.1776 0 16C0 24.8224 7.1776 32 16 32C24.8224 32 32 24.8224 32 16C32 7.1776 24.8224 0 16 0ZM16 28.8C8.9424 28.8 3.2 23.0576 3.2 16C3.2 8.9424 8.9424 3.2 16 3.2C23.0576 3.2 28.8 8.9424 28.8 16C28.8 23.0576 23.0576 28.8 16 28.8ZM21.624 14.6278L13.624 9.82784C13.1296 9.53184 12.5136 9.52224 12.0112 9.80704C11.5104 10.0918 11.2 10.623 11.2 11.2006V20.8006C11.2 21.3766 11.5104 21.9078 12.0112 22.1926C12.256 22.3318 12.528 22.4006 12.8 22.4006C13.0848 22.4006 13.3696 22.3238 13.624 22.1718L21.624 17.3718C22.104 17.0822 22.4 16.5622 22.4 16.0006C22.4 15.439 22.104 14.9174 21.624 14.6278ZM14.4 17.9734V14.0262L17.6912 16.0006L14.4 17.9734Z" fill="white"/>
</svg>
