<svg width="12" height="12" viewBox="0 0 12 12" fill="none" xmlns="http://www.w3.org/2000/svg">
<path d="M4.5 7.5C2.84325 7.5 1.5 6.15675 1.5 4.5C1.5 2.84325 2.84325 1.5 4.5 1.5C6.15675 1.5 7.5 2.84325 7.5 4.5C7.5 6.15675 6.15675 7.5 4.5 7.5ZM11.7803 10.7197L8.16525 7.10475C8.68875 6.369 9 5.472 9 4.5C9 2.01525 6.98475 0 4.5 0C2.01525 0 0 2.01525 0 4.5C0 6.98475 2.01525 9 4.5 9C5.472 9 6.369 8.68875 7.10475 8.16525L10.7197 11.7803C10.866 11.9265 11.058 12 11.25 12C11.442 12 11.634 11.9265 11.7803 11.7803C12.0735 11.487 12.0735 11.013 11.7803 10.7197Z" fill="#637381"/>
</svg>
