<svg width="14" height="12" viewBox="0 0 14 12" fill="none" xmlns="http://www.w3.org/2000/svg">
<path d="M12.3333 6.78667V5.33333C12.3333 3.91885 11.7713 2.56229 10.7712 1.5621C9.77096 0.561903 8.41441 0 6.99992 0C5.58543 0 4.22888 0.561903 3.22868 1.5621C2.22849 2.56229 1.66659 3.91885 1.66659 5.33333V6.78667C1.27755 6.92421 0.940584 7.17871 0.701878 7.51529C0.463171 7.85187 0.334412 8.25404 0.333252 8.66667V10C0.333252 10.5304 0.543966 11.0391 0.919038 11.4142C1.29411 11.7893 1.80282 12 2.33325 12H4.33325C4.51006 12 4.67963 11.9298 4.80466 11.8047C4.92968 11.6797 4.99992 11.5101 4.99992 11.3333V7.33333C4.99992 7.15652 4.92968 6.98695 4.80466 6.86193C4.67963 6.73691 4.51006 6.66667 4.33325 6.66667H2.99992V5.33333C2.99992 4.27247 3.42135 3.25505 4.17149 2.50491C4.92164 1.75476 5.93905 1.33333 6.99992 1.33333C8.06078 1.33333 9.0782 1.75476 9.82835 2.50491C10.5785 3.25505 10.9999 4.27247 10.9999 5.33333V6.66667H9.66659C9.48977 6.66667 9.32021 6.73691 9.19518 6.86193C9.07016 6.98695 8.99992 7.15652 8.99992 7.33333V11.3333C8.99992 11.5101 9.07016 11.6797 9.19518 11.8047C9.32021 11.9298 9.48977 12 9.66659 12H11.6666C12.197 12 12.7057 11.7893 13.0808 11.4142C13.4559 11.0391 13.6666 10.5304 13.6666 10V8.66667C13.6654 8.25404 13.5367 7.85187 13.298 7.51529C13.0593 7.17871 12.7223 6.92421 12.3333 6.78667ZM3.66659 8V10.6667H2.33325C2.15644 10.6667 1.98687 10.5964 1.86185 10.4714C1.73682 10.3464 1.66659 10.1768 1.66659 10V8.66667C1.66659 8.48986 1.73682 8.32029 1.86185 8.19526C1.98687 8.07024 2.15644 8 2.33325 8H3.66659ZM12.3333 10C12.3333 10.1768 12.263 10.3464 12.138 10.4714C12.013 10.5964 11.8434 10.6667 11.6666 10.6667H10.3333V8H11.6666C11.8434 8 12.013 8.07024 12.138 8.19526C12.263 8.32029 12.3333 8.48986 12.3333 8.66667V10Z" fill="#D0D5D9"/>
</svg>
