<svg width="12" height="14" viewBox="0 0 12 14" fill="none" xmlns="http://www.w3.org/2000/svg">
<path d="M10.0001 0.853207C9.96628 0.702819 9.88134 0.568816 9.75979 0.474007C9.63824 0.379197 9.48759 0.329441 9.33348 0.333207H2.66681C2.5127 0.329441 2.36205 0.379197 2.2405 0.474007C2.11895 0.568816 2.03401 0.702819 2.00014 0.853207L0.66681 6.85321C0.644733 6.95159 0.645262 7.05371 0.668357 7.15186C0.691452 7.25002 0.736511 7.34165 0.800143 7.41987C0.864289 7.499 0.945714 7.56238 1.03817 7.60514C1.13062 7.6479 1.23164 7.6689 1.33348 7.66654H3.96014C3.98695 7.88775 4.00031 8.11038 4.00014 8.33321C4.00639 9.90459 3.39041 11.4146 2.28681 12.5332C2.19507 12.6268 2.13295 12.7453 2.10822 12.874C2.08348 13.0027 2.09722 13.1359 2.14773 13.2568C2.19824 13.3777 2.28326 13.4811 2.39218 13.554C2.50111 13.6268 2.62909 13.666 2.76014 13.6665H9.24014C9.37119 13.666 9.49918 13.6268 9.6081 13.554C9.71702 13.4811 9.80205 13.3777 9.85256 13.2568C9.90306 13.1359 9.91681 13.0027 9.89207 12.874C9.86733 12.7453 9.80521 12.6268 9.71348 12.5332C8.60988 11.4146 7.9939 9.90459 8.00014 8.33321C7.99998 8.11038 8.01333 7.88775 8.04014 7.66654H8.66681V8.99987C8.66681 9.17668 8.73705 9.34625 8.86207 9.47128C8.9871 9.5963 9.15667 9.66654 9.33348 9.66654C9.51029 9.66654 9.67986 9.5963 9.80488 9.47128C9.92991 9.34625 10.0001 9.17668 10.0001 8.99987V7.66654H10.6668C10.7664 7.66688 10.8648 7.6449 10.9548 7.60221C11.0448 7.55953 11.1241 7.49722 11.1868 7.41987C11.2504 7.34165 11.2955 7.25002 11.3186 7.15186C11.3417 7.05371 11.3422 6.95159 11.3201 6.85321L10.0001 0.853207ZM4.14681 12.3332C4.92487 11.1445 5.33744 9.75387 5.33348 8.33321C5.33348 8.11321 5.33348 7.88654 5.30014 7.66654H6.70014C6.70014 7.88654 6.66681 8.11321 6.66681 8.33321C6.66285 9.75387 7.07541 11.1445 7.85348 12.3332H4.14681ZM2.14681 6.33321L3.20014 1.66654H8.80014L9.83348 6.33321H2.14681Z" fill="#D0D5D9"/>
</svg>
