<svg width="72" height="72" viewBox="0 0 72 72" fill="none" xmlns="http://www.w3.org/2000/svg">
<path d="M36 72C55.8823 72 72 55.8823 72 36C72 16.1177 55.8823 0 36 0C16.1177 0 0 16.1177 0 36C0 55.8823 16.1177 72 36 72Z" fill="white"/>
<path fill-rule="evenodd" clip-rule="evenodd" d="M33.0493 51.1296L48.3897 37.749C49.3261 36.9322 49.4231 35.5109 48.6063 34.5744C48.5406 34.4991 48.47 34.4283 48.3949 34.3624L33.0546 20.8974C32.1207 20.0777 30.6991 20.1702 29.8793 21.1041C29.519 21.5146 29.3203 22.0422 29.3203 22.5884V49.434C29.3203 50.6766 30.3277 51.684 31.5703 51.684C32.1141 51.684 32.6395 51.4871 33.0493 51.1296Z" fill="#212B36"/>
</svg>
